<mxfile host="app.diagrams.net" modified="2020-11-17T17:25:04.735Z" agent="5.0 (X11; Linux x86_64) AppleWebKit/537.36 (KHTML, like Gecko) Chrome/86.0.4240.193 Safari/537.36" etag="ulLwVfNIRuMsJkRFasld" version="13.9.9" type="github">
  <diagram id="EucBLksjyoG3OqVJEVb6" name="Page-1">
    <mxGraphModel dx="814" dy="494" grid="1" gridSize="10" guides="1" tooltips="1" connect="1" arrows="1" fold="1" page="1" pageScale="1" pageWidth="850" pageHeight="1100" math="0" shadow="0">
      <root>
        <mxCell id="0" />
        <mxCell id="1" parent="0" />
        <mxCell id="pZdWFzZazWteiJ8vHDAf-3" value="Cinema" style="shape=table;startSize=30;container=1;collapsible=1;childLayout=tableLayout;fixedRows=1;rowLines=0;fontStyle=1;align=center;resizeLast=1;" vertex="1" parent="1">
          <mxGeometry x="20" y="10" width="180" height="210" as="geometry" />
        </mxCell>
        <mxCell id="pZdWFzZazWteiJ8vHDAf-4" value="" style="shape=partialRectangle;collapsible=0;dropTarget=0;pointerEvents=0;fillColor=none;top=0;left=0;bottom=1;right=0;points=[[0,0.5],[1,0.5]];portConstraint=eastwest;" vertex="1" parent="pZdWFzZazWteiJ8vHDAf-3">
          <mxGeometry y="30" width="180" height="30" as="geometry" />
        </mxCell>
        <mxCell id="pZdWFzZazWteiJ8vHDAf-5" value="PK" style="shape=partialRectangle;connectable=0;fillColor=none;top=0;left=0;bottom=0;right=0;fontStyle=1;overflow=hidden;" vertex="1" parent="pZdWFzZazWteiJ8vHDAf-4">
          <mxGeometry width="30" height="30" as="geometry" />
        </mxCell>
        <mxCell id="pZdWFzZazWteiJ8vHDAf-6" value="Código" style="shape=partialRectangle;connectable=0;fillColor=none;top=0;left=0;bottom=0;right=0;align=left;spacingLeft=6;fontStyle=5;overflow=hidden;" vertex="1" parent="pZdWFzZazWteiJ8vHDAf-4">
          <mxGeometry x="30" width="150" height="30" as="geometry" />
        </mxCell>
        <mxCell id="pZdWFzZazWteiJ8vHDAf-7" value="" style="shape=partialRectangle;collapsible=0;dropTarget=0;pointerEvents=0;fillColor=none;top=0;left=0;bottom=0;right=0;points=[[0,0.5],[1,0.5]];portConstraint=eastwest;" vertex="1" parent="pZdWFzZazWteiJ8vHDAf-3">
          <mxGeometry y="60" width="180" height="30" as="geometry" />
        </mxCell>
        <mxCell id="pZdWFzZazWteiJ8vHDAf-8" value="" style="shape=partialRectangle;connectable=0;fillColor=none;top=0;left=0;bottom=0;right=0;editable=1;overflow=hidden;" vertex="1" parent="pZdWFzZazWteiJ8vHDAf-7">
          <mxGeometry width="30" height="30" as="geometry" />
        </mxCell>
        <mxCell id="pZdWFzZazWteiJ8vHDAf-9" value="Nome Fantasia" style="shape=partialRectangle;connectable=0;fillColor=none;top=0;left=0;bottom=0;right=0;align=left;spacingLeft=6;overflow=hidden;" vertex="1" parent="pZdWFzZazWteiJ8vHDAf-7">
          <mxGeometry x="30" width="150" height="30" as="geometry" />
        </mxCell>
        <mxCell id="pZdWFzZazWteiJ8vHDAf-10" value="" style="shape=partialRectangle;collapsible=0;dropTarget=0;pointerEvents=0;fillColor=none;top=0;left=0;bottom=0;right=0;points=[[0,0.5],[1,0.5]];portConstraint=eastwest;" vertex="1" parent="pZdWFzZazWteiJ8vHDAf-3">
          <mxGeometry y="90" width="180" height="30" as="geometry" />
        </mxCell>
        <mxCell id="pZdWFzZazWteiJ8vHDAf-11" value="" style="shape=partialRectangle;connectable=0;fillColor=none;top=0;left=0;bottom=0;right=0;editable=1;overflow=hidden;" vertex="1" parent="pZdWFzZazWteiJ8vHDAf-10">
          <mxGeometry width="30" height="30" as="geometry" />
        </mxCell>
        <mxCell id="pZdWFzZazWteiJ8vHDAf-12" value="Logradouro" style="shape=partialRectangle;connectable=0;fillColor=none;top=0;left=0;bottom=0;right=0;align=left;spacingLeft=6;overflow=hidden;" vertex="1" parent="pZdWFzZazWteiJ8vHDAf-10">
          <mxGeometry x="30" width="150" height="30" as="geometry" />
        </mxCell>
        <mxCell id="pZdWFzZazWteiJ8vHDAf-13" value="" style="shape=partialRectangle;collapsible=0;dropTarget=0;pointerEvents=0;fillColor=none;top=0;left=0;bottom=0;right=0;points=[[0,0.5],[1,0.5]];portConstraint=eastwest;" vertex="1" parent="pZdWFzZazWteiJ8vHDAf-3">
          <mxGeometry y="120" width="180" height="30" as="geometry" />
        </mxCell>
        <mxCell id="pZdWFzZazWteiJ8vHDAf-14" value="" style="shape=partialRectangle;connectable=0;fillColor=none;top=0;left=0;bottom=0;right=0;editable=1;overflow=hidden;" vertex="1" parent="pZdWFzZazWteiJ8vHDAf-13">
          <mxGeometry width="30" height="30" as="geometry" />
        </mxCell>
        <mxCell id="pZdWFzZazWteiJ8vHDAf-15" value="Bairro" style="shape=partialRectangle;connectable=0;fillColor=none;top=0;left=0;bottom=0;right=0;align=left;spacingLeft=6;overflow=hidden;" vertex="1" parent="pZdWFzZazWteiJ8vHDAf-13">
          <mxGeometry x="30" width="150" height="30" as="geometry" />
        </mxCell>
        <mxCell id="pZdWFzZazWteiJ8vHDAf-16" value="" style="shape=partialRectangle;collapsible=0;dropTarget=0;pointerEvents=0;fillColor=none;top=0;left=0;bottom=0;right=0;points=[[0,0.5],[1,0.5]];portConstraint=eastwest;" vertex="1" parent="pZdWFzZazWteiJ8vHDAf-3">
          <mxGeometry y="150" width="180" height="30" as="geometry" />
        </mxCell>
        <mxCell id="pZdWFzZazWteiJ8vHDAf-17" value="" style="shape=partialRectangle;connectable=0;fillColor=none;top=0;left=0;bottom=0;right=0;editable=1;overflow=hidden;" vertex="1" parent="pZdWFzZazWteiJ8vHDAf-16">
          <mxGeometry width="30" height="30" as="geometry" />
        </mxCell>
        <mxCell id="pZdWFzZazWteiJ8vHDAf-18" value="Número" style="shape=partialRectangle;connectable=0;fillColor=none;top=0;left=0;bottom=0;right=0;align=left;spacingLeft=6;overflow=hidden;" vertex="1" parent="pZdWFzZazWteiJ8vHDAf-16">
          <mxGeometry x="30" width="150" height="30" as="geometry" />
        </mxCell>
        <mxCell id="pZdWFzZazWteiJ8vHDAf-19" value="" style="shape=partialRectangle;collapsible=0;dropTarget=0;pointerEvents=0;fillColor=none;top=0;left=0;bottom=0;right=0;points=[[0,0.5],[1,0.5]];portConstraint=eastwest;" vertex="1" parent="pZdWFzZazWteiJ8vHDAf-3">
          <mxGeometry y="180" width="180" height="30" as="geometry" />
        </mxCell>
        <mxCell id="pZdWFzZazWteiJ8vHDAf-20" value="" style="shape=partialRectangle;connectable=0;fillColor=none;top=0;left=0;bottom=0;right=0;editable=1;overflow=hidden;" vertex="1" parent="pZdWFzZazWteiJ8vHDAf-19">
          <mxGeometry width="30" height="30" as="geometry" />
        </mxCell>
        <mxCell id="pZdWFzZazWteiJ8vHDAf-21" value="Capacidade" style="shape=partialRectangle;connectable=0;fillColor=none;top=0;left=0;bottom=0;right=0;align=left;spacingLeft=6;overflow=hidden;" vertex="1" parent="pZdWFzZazWteiJ8vHDAf-19">
          <mxGeometry x="30" width="150" height="30" as="geometry" />
        </mxCell>
        <mxCell id="pZdWFzZazWteiJ8vHDAf-22" value="Filme" style="shape=table;startSize=30;container=1;collapsible=1;childLayout=tableLayout;fixedRows=1;rowLines=0;fontStyle=1;align=center;resizeLast=1;" vertex="1" parent="1">
          <mxGeometry x="560" y="10" width="180" height="210" as="geometry" />
        </mxCell>
        <mxCell id="pZdWFzZazWteiJ8vHDAf-23" value="" style="shape=partialRectangle;collapsible=0;dropTarget=0;pointerEvents=0;fillColor=none;top=0;left=0;bottom=1;right=0;points=[[0,0.5],[1,0.5]];portConstraint=eastwest;" vertex="1" parent="pZdWFzZazWteiJ8vHDAf-22">
          <mxGeometry y="30" width="180" height="30" as="geometry" />
        </mxCell>
        <mxCell id="pZdWFzZazWteiJ8vHDAf-24" value="PK" style="shape=partialRectangle;connectable=0;fillColor=none;top=0;left=0;bottom=0;right=0;fontStyle=1;overflow=hidden;" vertex="1" parent="pZdWFzZazWteiJ8vHDAf-23">
          <mxGeometry width="30" height="30" as="geometry" />
        </mxCell>
        <mxCell id="pZdWFzZazWteiJ8vHDAf-25" value="Código" style="shape=partialRectangle;connectable=0;fillColor=none;top=0;left=0;bottom=0;right=0;align=left;spacingLeft=6;fontStyle=5;overflow=hidden;" vertex="1" parent="pZdWFzZazWteiJ8vHDAf-23">
          <mxGeometry x="30" width="150" height="30" as="geometry" />
        </mxCell>
        <mxCell id="pZdWFzZazWteiJ8vHDAf-26" value="" style="shape=partialRectangle;collapsible=0;dropTarget=0;pointerEvents=0;fillColor=none;top=0;left=0;bottom=0;right=0;points=[[0,0.5],[1,0.5]];portConstraint=eastwest;" vertex="1" parent="pZdWFzZazWteiJ8vHDAf-22">
          <mxGeometry y="60" width="180" height="30" as="geometry" />
        </mxCell>
        <mxCell id="pZdWFzZazWteiJ8vHDAf-27" value="" style="shape=partialRectangle;connectable=0;fillColor=none;top=0;left=0;bottom=0;right=0;editable=1;overflow=hidden;" vertex="1" parent="pZdWFzZazWteiJ8vHDAf-26">
          <mxGeometry width="30" height="30" as="geometry" />
        </mxCell>
        <mxCell id="pZdWFzZazWteiJ8vHDAf-28" value="Tipo" style="shape=partialRectangle;connectable=0;fillColor=none;top=0;left=0;bottom=0;right=0;align=left;spacingLeft=6;overflow=hidden;" vertex="1" parent="pZdWFzZazWteiJ8vHDAf-26">
          <mxGeometry x="30" width="150" height="30" as="geometry" />
        </mxCell>
        <mxCell id="pZdWFzZazWteiJ8vHDAf-29" value="" style="shape=partialRectangle;collapsible=0;dropTarget=0;pointerEvents=0;fillColor=none;top=0;left=0;bottom=0;right=0;points=[[0,0.5],[1,0.5]];portConstraint=eastwest;" vertex="1" parent="pZdWFzZazWteiJ8vHDAf-22">
          <mxGeometry y="90" width="180" height="30" as="geometry" />
        </mxCell>
        <mxCell id="pZdWFzZazWteiJ8vHDAf-30" value="" style="shape=partialRectangle;connectable=0;fillColor=none;top=0;left=0;bottom=0;right=0;editable=1;overflow=hidden;" vertex="1" parent="pZdWFzZazWteiJ8vHDAf-29">
          <mxGeometry width="30" height="30" as="geometry" />
        </mxCell>
        <mxCell id="pZdWFzZazWteiJ8vHDAf-31" value="Gênero" style="shape=partialRectangle;connectable=0;fillColor=none;top=0;left=0;bottom=0;right=0;align=left;spacingLeft=6;overflow=hidden;" vertex="1" parent="pZdWFzZazWteiJ8vHDAf-29">
          <mxGeometry x="30" width="150" height="30" as="geometry" />
        </mxCell>
        <mxCell id="pZdWFzZazWteiJ8vHDAf-32" value="" style="shape=partialRectangle;collapsible=0;dropTarget=0;pointerEvents=0;fillColor=none;top=0;left=0;bottom=0;right=0;points=[[0,0.5],[1,0.5]];portConstraint=eastwest;" vertex="1" parent="pZdWFzZazWteiJ8vHDAf-22">
          <mxGeometry y="120" width="180" height="30" as="geometry" />
        </mxCell>
        <mxCell id="pZdWFzZazWteiJ8vHDAf-33" value="" style="shape=partialRectangle;connectable=0;fillColor=none;top=0;left=0;bottom=0;right=0;editable=1;overflow=hidden;" vertex="1" parent="pZdWFzZazWteiJ8vHDAf-32">
          <mxGeometry width="30" height="30" as="geometry" />
        </mxCell>
        <mxCell id="pZdWFzZazWteiJ8vHDAf-34" value="Título" style="shape=partialRectangle;connectable=0;fillColor=none;top=0;left=0;bottom=0;right=0;align=left;spacingLeft=6;overflow=hidden;" vertex="1" parent="pZdWFzZazWteiJ8vHDAf-32">
          <mxGeometry x="30" width="150" height="30" as="geometry" />
        </mxCell>
        <mxCell id="pZdWFzZazWteiJ8vHDAf-35" value="" style="shape=partialRectangle;collapsible=0;dropTarget=0;pointerEvents=0;fillColor=none;top=0;left=0;bottom=0;right=0;points=[[0,0.5],[1,0.5]];portConstraint=eastwest;" vertex="1" parent="pZdWFzZazWteiJ8vHDAf-22">
          <mxGeometry y="150" width="180" height="30" as="geometry" />
        </mxCell>
        <mxCell id="pZdWFzZazWteiJ8vHDAf-36" value="" style="shape=partialRectangle;connectable=0;fillColor=none;top=0;left=0;bottom=0;right=0;editable=1;overflow=hidden;" vertex="1" parent="pZdWFzZazWteiJ8vHDAf-35">
          <mxGeometry width="30" height="30" as="geometry" />
        </mxCell>
        <mxCell id="pZdWFzZazWteiJ8vHDAf-37" value="Duração" style="shape=partialRectangle;connectable=0;fillColor=none;top=0;left=0;bottom=0;right=0;align=left;spacingLeft=6;overflow=hidden;" vertex="1" parent="pZdWFzZazWteiJ8vHDAf-35">
          <mxGeometry x="30" width="150" height="30" as="geometry" />
        </mxCell>
        <mxCell id="pZdWFzZazWteiJ8vHDAf-38" value="" style="shape=partialRectangle;collapsible=0;dropTarget=0;pointerEvents=0;fillColor=none;top=0;left=0;bottom=0;right=0;points=[[0,0.5],[1,0.5]];portConstraint=eastwest;" vertex="1" parent="pZdWFzZazWteiJ8vHDAf-22">
          <mxGeometry y="180" width="180" height="30" as="geometry" />
        </mxCell>
        <mxCell id="pZdWFzZazWteiJ8vHDAf-39" value="" style="shape=partialRectangle;connectable=0;fillColor=none;top=0;left=0;bottom=0;right=0;editable=1;overflow=hidden;" vertex="1" parent="pZdWFzZazWteiJ8vHDAf-38">
          <mxGeometry width="30" height="30" as="geometry" />
        </mxCell>
        <mxCell id="pZdWFzZazWteiJ8vHDAf-40" value="Classificação" style="shape=partialRectangle;connectable=0;fillColor=none;top=0;left=0;bottom=0;right=0;align=left;spacingLeft=6;overflow=hidden;" vertex="1" parent="pZdWFzZazWteiJ8vHDAf-38">
          <mxGeometry x="30" width="150" height="30" as="geometry" />
        </mxCell>
      </root>
    </mxGraphModel>
  </diagram>
</mxfile>
